<?xml version="1.0" encoding="UTF-8" standalone="no"?>
<!-- Created with Inkscape (http://www.inkscape.org/) -->

<svg
   width="210mm"
   height="297mm"
   viewBox="0 0 210 297"
   version="1.1"
   id="svg361"
   inkscape:version="1.1.1 (3bf5ae0d25, 2021-09-20)"
   sodipodi:docname="elipsa.svg"
   xmlns:inkscape="http://www.inkscape.org/namespaces/inkscape"
   xmlns:sodipodi="http://sodipodi.sourceforge.net/DTD/sodipodi-0.dtd"
   xmlns="http://www.w3.org/2000/svg"
   xmlns:svg="http://www.w3.org/2000/svg">
  <sodipodi:namedview
     id="namedview363"
     pagecolor="#ffffff"
     bordercolor="#666666"
     borderopacity="1.0"
     inkscape:pageshadow="2"
     inkscape:pageopacity="0.0"
     inkscape:pagecheckerboard="0"
     inkscape:document-units="mm"
     showgrid="false"
     inkscape:zoom="1.2003863"
     inkscape:cx="396.95555"
     inkscape:cy="253.66834"
     inkscape:window-width="1920"
     inkscape:window-height="991"
     inkscape:window-x="-9"
     inkscape:window-y="-9"
     inkscape:window-maximized="1"
     inkscape:current-layer="g106" />
  <defs
     id="defs358" />
  <g
     inkscape:label="Vrstva 1"
     inkscape:groupmode="layer"
     id="layer1">
    <g
       id="g106"
       transform="matrix(0.35277777,0,0,0.35277777,67.933614,18.650488)">
      <g
         id="g108"
         transform="translate(82.5,-261)">
        <path
           d="m 171.648,320.434 c 0,39.027 -31.636,70.668 -70.664,70.668 -39.031,0 -70.668,-31.641 -70.668,-70.668 0,-39.028 31.637,-70.664 70.668,-70.664 39.028,0 70.664,31.636 70.664,70.664 z"
           style="fill:none;stroke:#000000;stroke-width:0.507402;stroke-linecap:butt;stroke-linejoin:miter;stroke-miterlimit:4;stroke-dasharray:none;stroke-opacity:1"
           id="path110" />
      </g>
      <path
         d="m 238.41,-9.281 c 0,-0.407 -0.324,-0.66 -0.648,-0.66 -0.379,0 -0.66,0.296 -0.66,0.66 0,0.351 0.296,0.648 0.648,0.648 0.402,0 0.66,-0.324 0.66,-0.648 z"
         style="fill:#0000ff;fill-opacity:1;fill-rule:nonzero;stroke:none"
         id="path112" />
      <path
         d="m 232.844,-0.50400007 c 0.16,-0.066 0.633,-0.363 0.633,-0.55500003 0,-0.093 -0.079,-0.093 -0.161,-0.093 -0.461,0 -1.785,0.58200003 -1.785,1.93300007 C 231.531,1.754 232.625,2.754 234.273,2.754 c 2.204,0 4.758,-1.527 4.758,-3.36300007 0,-1.28600003 -1.351,-1.90700003 -2.445,-2.39500003 -0.945,-0.43 -1.566,-0.984 -1.566,-1.754 0,-0.285 0.121,-0.812 0.539,-1.176 0.406,-0.351 1.16,-0.39 1.351,-0.39 0.149,0 0.715,0.012 1.297,0.269 0.254,0.121 0.605,0.282 0.605,0.864 0,0.191 -0.011,0.257 -0.054,0.406 -0.012,0.039 -0.024,0.094 -0.024,0.133 0,0.097 0.078,0.097 0.133,0.097 0.176,0 0.5,-0.136 0.77,-0.367 0.175,-0.133 0.324,-0.308 0.324,-0.836 0,-0.664 -0.352,-0.851 -0.715,-1.015 -0.637,-0.297 -1.258,-0.297 -1.445,-0.297 -1.77,0 -3.93,1.351 -3.93,2.89 0,1.137 1.172,1.676 1.82,1.961 0.961,0.434 2.192,1.055 2.192,2.18800003 0,0.90600004 -0.664,2.03900007 -2.715,2.03900007 -1.379,0 -2.488,-0.891 -2.488,-1.80900007 0,-0.242 0.07,-0.484 0.164,-0.703 z"
         style="fill:#0000ff;fill-opacity:1;fill-rule:nonzero;stroke:none"
         id="path114" />
      <path
         d="m 241.461,0.89799997 h 0.883 c 0.172,0 0.277,0 0.277,-0.171 0,-0.125 -0.117,-0.125 -0.269,-0.125 h -0.821 l 0.324,-1.28200004 c 0.036,-0.132 0.036,-0.179 0.036,-0.187 0,-0.19200003 -0.141,-0.28100003 -0.297,-0.28100003 -0.305,0 -0.367,0.24600003 -0.469,0.64800003 l -0.277,1.10200004 h -0.864 c -0.172,0 -0.289,0 -0.289,0.168 0,0.128 0.117,0.128 0.27,0.128 h 0.812 L 240.234,3.059 c -0.054,0.226 -0.132,0.539 -0.132,0.668 0,0.539 0.441,0.843 0.918,0.843 0.964,0 1.511,-1.269 1.511,-1.375 0,-0.101 -0.082,-0.117 -0.133,-0.117 -0.101,0 -0.109,0.035 -0.171,0.168 -0.18,0.434 -0.633,1.074 -1.18,1.074 -0.192,0 -0.297,-0.125 -0.297,-0.425 0,-0.168 0.027,-0.27 0.051,-0.387 z"
         style="fill:#0000ff;fill-opacity:1;fill-rule:nonzero;stroke:none"
         id="path116" />
      <path
         d="m 113.797,7.957 c 0.16,-0.07 0.633,-0.367 0.633,-0.555 0,-0.093 -0.078,-0.093 -0.16,-0.093 -0.461,0 -1.786,0.578 -1.786,1.929 0,0.973 1.094,1.973 2.743,1.973 2.203,0 4.757,-1.527 4.757,-3.363 0,-1.286 -1.351,-1.907 -2.445,-2.391 -0.945,-0.434 -1.566,-0.988 -1.566,-1.758 0,-0.281 0.121,-0.808 0.539,-1.176 0.406,-0.347 1.16,-0.39 1.351,-0.39 0.149,0 0.715,0.015 1.297,0.269 0.254,0.121 0.606,0.286 0.606,0.868 0,0.187 -0.012,0.253 -0.051,0.402 -0.016,0.043 -0.027,0.098 -0.027,0.137 0,0.093 0.078,0.093 0.132,0.093 0.176,0 0.5,-0.132 0.77,-0.363 0.176,-0.137 0.324,-0.312 0.324,-0.84 0,-0.66 -0.352,-0.847 -0.715,-1.011 -0.637,-0.297 -1.258,-0.297 -1.445,-0.297 -1.77,0 -3.93,1.351 -3.93,2.89 0,1.137 1.172,1.676 1.821,1.957 0.96,0.434 2.191,1.055 2.191,2.192 0,0.902 -0.664,2.039 -2.715,2.039 -1.379,0 -2.488,-0.891 -2.488,-1.809 0,-0.246 0.07,-0.488 0.164,-0.703 z"
         style="fill:#000000;fill-opacity:1;fill-rule:nonzero;stroke:none"
         id="path118" />
      <path
         d="m 122.414,9.355 h 0.883 c 0.172,0 0.277,0 0.277,-0.171 0,-0.125 -0.117,-0.125 -0.269,-0.125 h -0.821 l 0.325,-1.278 c 0.035,-0.136 0.035,-0.179 0.035,-0.191 0,-0.188 -0.141,-0.278 -0.297,-0.278 -0.305,0 -0.367,0.243 -0.465,0.649 l -0.281,1.098 h -0.863 c -0.172,0 -0.29,0 -0.29,0.171 0,0.125 0.118,0.125 0.27,0.125 h 0.812 l -0.542,2.165 c -0.055,0.222 -0.133,0.539 -0.133,0.664 0,0.543 0.441,0.847 0.918,0.847 0.965,0 1.511,-1.269 1.511,-1.379 0,-0.097 -0.082,-0.117 -0.132,-0.117 -0.102,0 -0.11,0.035 -0.172,0.172 -0.18,0.434 -0.633,1.07 -1.18,1.07 -0.191,0 -0.297,-0.125 -0.297,-0.422 0,-0.171 0.027,-0.269 0.055,-0.386 z"
         style="fill:#000000;fill-opacity:1;fill-rule:nonzero;stroke:none"
         id="path120" />
      <g
         id="g122"
         transform="translate(82.5,-261)">
        <path
           d="m 142.934,246.672 0.582,151.644"
           style="fill:#0000ff;fill-opacity:1;fill-rule:nonzero;stroke:#1b00ff;stroke-width:0.692308;stroke-linecap:butt;stroke-linejoin:miter;stroke-miterlimit:4;stroke-dasharray:none;stroke-opacity:1"
           id="path124" />
      </g>
      <g
         id="g126"
         transform="translate(82.5,-261)">
        <path
           d="m 100.984,320.938 55.27,-0.274"
           style="fill:none;stroke:#000000;stroke-width:0.907087;stroke-linecap:butt;stroke-linejoin:miter;stroke-miterlimit:4;stroke-dasharray:none;stroke-opacity:1"
           id="path128" />
      </g>
      <g
         id="g130"
         transform="matrix(1,-0.00492871,0.00492871,1,82.5,-261)">
        <path
           d="m 100.287,321.428 c 10e-4,0.5 -0.407,0.904 -0.907,0.906 -0.5,10e-4 -0.904,-0.407 -0.906,-0.907 -0.001,-0.5 0.407,-0.908 0.907,-0.906 0.5,-0.001 0.908,0.403 0.906,0.907 z"
           style="fill:#000000;fill-opacity:1;fill-rule:evenodd;stroke:#000000;stroke-width:0.241887;stroke-linecap:butt;stroke-linejoin:miter;stroke-miterlimit:4;stroke-dasharray:none;stroke-opacity:1"
           id="path132" />
      </g>
      <g
         id="g134"
         transform="matrix(-1,0.00492871,-0.00492871,-1,82.5,-261)">
        <path
           d="m -149.923,-319.231 -5.946,-2.186 5.944,-2.189 c -0.947,1.292 -0.944,3.058 0.002,4.375 z"
           style="fill:#000000;fill-opacity:1;fill-rule:evenodd;stroke:#000000;stroke-width:0.340153;stroke-linecap:butt;stroke-linejoin:round;stroke-miterlimit:4;stroke-dasharray:none;stroke-opacity:1"
           id="path136" />
      </g>
      <path
         d="m 201.359,45.473 c 0,-0.407 -0.324,-0.664 -0.648,-0.664 -0.375,0 -0.66,0.296 -0.66,0.664 0,0.347 0.297,0.648 0.648,0.648 0.406,0 0.66,-0.324 0.66,-0.648 z"
         style="fill:#000000;fill-opacity:1;fill-rule:nonzero;stroke:none"
         id="path138" />
      <path
         d="m 197.711,49.836 c 0.027,-0.082 0.363,-0.758 0.863,-1.191 0.352,-0.325 0.813,-0.54 1.336,-0.54 0.543,0 0.731,0.407 0.731,0.946 0,0.082 0,0.351 -0.161,0.984 l -0.339,1.395 c -0.106,0.402 -0.364,1.402 -0.391,1.55 -0.055,0.204 -0.137,0.555 -0.137,0.61 0,0.187 0.149,0.336 0.352,0.336 0.406,0 0.473,-0.309 0.594,-0.797 l 0.812,-3.227 c 0.027,-0.109 0.731,-1.797 2.215,-1.797 0.539,0 0.73,0.407 0.73,0.946 0,0.758 -0.527,2.23 -0.824,3.039 -0.121,0.324 -0.187,0.5 -0.187,0.742 0,0.609 0.418,1.094 1.066,1.094 1.254,0 1.727,-1.985 1.727,-2.067 0,-0.066 -0.051,-0.121 -0.133,-0.121 -0.121,0 -0.137,0.043 -0.203,0.27 -0.313,1.082 -0.813,1.648 -1.352,1.648 -0.133,0 -0.351,-0.011 -0.351,-0.445 0,-0.352 0.164,-0.781 0.218,-0.93 0.243,-0.648 0.848,-2.246 0.848,-3.027 0,-0.813 -0.473,-1.418 -1.496,-1.418 -0.906,0 -1.637,0.512 -2.176,1.309 -0.043,-0.731 -0.488,-1.309 -1.5,-1.309 -1.203,0 -1.84,0.852 -2.082,1.187 -0.039,-0.769 -0.594,-1.187 -1.187,-1.187 -0.391,0 -0.704,0.187 -0.961,0.703 -0.243,0.484 -0.43,1.309 -0.43,1.363 0,0.055 0.055,0.121 0.148,0.121 0.106,0 0.121,-0.011 0.204,-0.324 0.199,-0.797 0.457,-1.594 1,-1.594 0.308,0 0.417,0.215 0.417,0.622 0,0.296 -0.136,0.824 -0.23,1.242 l -0.379,1.461 c -0.055,0.254 -0.203,0.863 -0.269,1.105 -0.094,0.352 -0.243,0.988 -0.243,1.055 0,0.187 0.149,0.336 0.352,0.336 0.16,0 0.352,-0.078 0.457,-0.281 0.027,-0.067 0.148,-0.54 0.219,-0.813 l 0.297,-1.215 z"
         style="fill:#000000;fill-opacity:1;fill-rule:nonzero;stroke:none"
         id="path140" />
      <path
         d="m 210.887,57.074 c 0,-0.039 0,-0.066 -0.227,-0.297 -1.351,-1.363 -2.109,-3.593 -2.109,-6.347 0,-2.621 0.637,-4.879 2.203,-6.473 0.133,-0.121 0.133,-0.148 0.133,-0.187 0,-0.082 -0.067,-0.11 -0.121,-0.11 -0.176,0 -1.282,0.973 -1.946,2.297 -0.687,1.363 -1,2.809 -1,4.473 0,1.203 0.192,2.808 0.895,4.254 0.797,1.621 1.902,2.5 2.051,2.5 0.054,0 0.121,-0.028 0.121,-0.11 z"
         style="fill:#000000;fill-opacity:1;fill-rule:nonzero;stroke:none"
         id="path142" />
      <path
         d="m 214.355,48.363 h 1.247 c 0.253,0 0.39,0 0.39,-0.246 0,-0.148 -0.082,-0.148 -0.351,-0.148 h -1.188 l 0.5,-1.973 c 0.051,-0.187 0.051,-0.215 0.051,-0.308 0,-0.215 -0.176,-0.34 -0.352,-0.34 -0.105,0 -0.418,0.043 -0.523,0.472 l -0.527,2.149 h -1.27 c -0.273,0 -0.394,0 -0.394,0.258 0,0.136 0.097,0.136 0.351,0.136 h 1.203 l -0.89,3.567 c -0.11,0.472 -0.149,0.605 -0.149,0.781 0,0.637 0.445,1.215 1.203,1.215 1.364,0 2.094,-1.969 2.094,-2.067 0,-0.078 -0.055,-0.121 -0.137,-0.121 -0.027,0 -0.082,0 -0.109,0.055 -0.012,0.016 -0.027,0.027 -0.121,0.242 -0.281,0.676 -0.906,1.621 -1.688,1.621 -0.406,0 -0.433,-0.336 -0.433,-0.633 0,-0.015 0,-0.269 0.043,-0.433 z"
         style="fill:#000000;fill-opacity:1;fill-rule:nonzero;stroke:none"
         id="path144" />
      <path
         d="m 220.227,50.43 c 0,-1.028 -0.133,-2.703 -0.891,-4.27 -0.797,-1.621 -1.906,-2.5 -2.055,-2.5 -0.051,0 -0.121,0.028 -0.121,0.11 0,0.039 0,0.066 0.231,0.296 1.351,1.364 2.109,3.594 2.109,6.348 0,2.621 -0.637,4.879 -2.203,6.473 -0.137,0.121 -0.137,0.148 -0.137,0.187 0,0.082 0.07,0.11 0.121,0.11 0.176,0 1.285,-0.973 1.946,-2.297 0.691,-1.379 1,-2.836 1,-4.457 z"
         style="fill:#000000;fill-opacity:1;fill-rule:nonzero;stroke:none"
         id="path146" />
      <path
         d="m 186.363,64.812 c 0.125,-0.457 0.149,-0.593 1.11,-0.593 0.257,0 0.379,0 0.379,-0.258 0,-0.133 -0.094,-0.133 -0.352,-0.133 h -1.621 c -0.34,0 -0.352,0.012 -0.5,0.231 l -4.93,7.793 -1.015,-7.727 c -0.039,-0.297 -0.055,-0.297 -0.403,-0.297 h -1.676 c -0.257,0 -0.378,0 -0.378,0.258 0,0.133 0.121,0.133 0.324,0.133 0.824,0 0.824,0.109 0.824,0.258 0,0.027 0,0.109 -0.055,0.308 l -1.73,6.891 c -0.16,0.648 -0.473,0.945 -1.375,0.988 -0.043,0 -0.203,0.012 -0.203,0.242 0,0.149 0.121,0.149 0.176,0.149 0.269,0 0.957,-0.028 1.226,-0.028 h 0.648 c 0.192,0 0.422,0.028 0.61,0.028 0.094,0 0.242,0 0.242,-0.258 0,-0.121 -0.133,-0.133 -0.187,-0.133 -0.446,-0.016 -0.879,-0.098 -0.879,-0.582 0,-0.137 0,-0.148 0.054,-0.34 l 1.864,-7.441 h 0.015 l 1.121,8.39 c 0.039,0.325 0.051,0.364 0.176,0.364 0.149,0 0.215,-0.11 0.281,-0.231 l 5.43,-8.59 h 0.016 l -1.961,7.821 c -0.121,0.472 -0.149,0.609 -1.094,0.609 -0.254,0 -0.391,0 -0.391,0.242 0,0.149 0.121,0.149 0.203,0.149 0.231,0 0.5,-0.028 0.731,-0.028 h 1.594 c 0.23,0 0.511,0.028 0.742,0.028 0.109,0 0.258,0 0.258,-0.258 0,-0.133 -0.121,-0.133 -0.325,-0.133 -0.824,0 -0.824,-0.109 -0.824,-0.246 0,-0.012 0,-0.106 0.028,-0.215 z"
         style="fill:#000000;fill-opacity:1;fill-rule:nonzero;stroke:none"
         id="path148" />
      <path
         d="m 188.887,71.496 h 0.883 c 0.171,0 0.277,0 0.277,-0.172 0,-0.125 -0.117,-0.125 -0.27,-0.125 h -0.82 l 0.324,-1.277 c 0.035,-0.137 0.035,-0.184 0.035,-0.192 0,-0.187 -0.14,-0.277 -0.296,-0.277 -0.305,0 -0.368,0.242 -0.469,0.649 l -0.278,1.097 h -0.863 c -0.172,0 -0.289,0 -0.289,0.172 0,0.125 0.117,0.125 0.27,0.125 h 0.812 l -0.543,2.16 c -0.055,0.227 -0.133,0.543 -0.133,0.668 0,0.539 0.442,0.848 0.918,0.848 0.965,0 1.512,-1.27 1.512,-1.379 0,-0.098 -0.082,-0.117 -0.133,-0.117 -0.101,0 -0.109,0.035 -0.172,0.172 -0.179,0.429 -0.632,1.07 -1.179,1.07 -0.192,0 -0.297,-0.125 -0.297,-0.422 0,-0.172 0.027,-0.269 0.051,-0.387 z"
         style="fill:#000000;fill-opacity:1;fill-rule:nonzero;stroke:none"
         id="path150" />
      <path
         d="m 238.777,64.098 c 0,-0.121 -0.093,-0.121 -0.121,-0.121 -0.027,0 -0.082,0 -0.191,0.136 l -0.93,1.133 c -0.473,-0.808 -1.219,-1.269 -2.23,-1.269 -2.918,0 -5.946,2.957 -5.946,6.132 0,2.258 1.582,3.661 3.555,3.661 1.078,0 2.027,-0.458 2.809,-1.122 1.175,-0.984 1.527,-2.296 1.527,-2.402 0,-0.121 -0.109,-0.121 -0.148,-0.121 -0.122,0 -0.137,0.078 -0.164,0.133 -0.622,2.109 -2.446,3.121 -3.793,3.121 -1.434,0 -2.676,-0.918 -2.676,-2.836 0,-0.434 0.133,-2.785 1.66,-4.555 0.742,-0.863 2.016,-1.621 3.297,-1.621 1.488,0 2.148,1.231 2.148,2.61 0,0.351 -0.039,0.648 -0.039,0.703 0,0.121 0.133,0.121 0.176,0.121 0.148,0 0.16,-0.016 0.215,-0.258 z"
         style="fill:#000000;fill-opacity:1;fill-rule:nonzero;stroke:none"
         id="path152" />
      <path
         d="m 240.141,71.93 h 0.882 c 0.168,0 0.278,0 0.278,-0.172 0,-0.125 -0.117,-0.125 -0.27,-0.125 h -0.82 l 0.324,-1.281 c 0.035,-0.133 0.035,-0.18 0.035,-0.188 0,-0.187 -0.144,-0.277 -0.297,-0.277 -0.304,0 -0.367,0.242 -0.468,0.648 l -0.278,1.098 h -0.863 c -0.172,0 -0.289,0 -0.289,0.172 0,0.125 0.117,0.125 0.27,0.125 h 0.808 l -0.539,2.16 c -0.055,0.226 -0.137,0.543 -0.137,0.668 0,0.539 0.442,0.847 0.922,0.847 0.961,0 1.512,-1.273 1.512,-1.378 0,-0.102 -0.082,-0.118 -0.137,-0.118 -0.097,0 -0.105,0.036 -0.168,0.172 -0.183,0.43 -0.633,1.071 -1.179,1.071 -0.192,0 -0.301,-0.125 -0.301,-0.422 0,-0.172 0.027,-0.274 0.054,-0.391 z"
         style="fill:#000000;fill-opacity:1;fill-rule:nonzero;stroke:none"
         id="path154" />
      <g
         id="g156"
         transform="translate(-181.5,-39)">
        <path
           d="m 171.648,98.434 c 0,39.027 -31.636,70.668 -70.664,70.668 -39.031,0 -70.668,-31.641 -70.668,-70.668 0,-39.028 31.637,-70.664 70.668,-70.664 39.028,0 70.664,31.636 70.664,70.664 z"
           style="fill:none;stroke:#f41212;stroke-width:0.507402;stroke-linecap:butt;stroke-linejoin:miter;stroke-miterlimit:4;stroke-dasharray:none;stroke-opacity:1"
           id="path158" />
      </g>
      <path
         d="m -26.414,123.758 c 0,-0.406 -0.324,-0.66 -0.648,-0.66 -0.376,0 -0.661,0.297 -0.661,0.66 0,0.351 0.297,0.648 0.649,0.648 0.406,0 0.66,-0.324 0.66,-0.648 z"
         style="fill:#0000ff;fill-opacity:1;fill-rule:nonzero;stroke:none"
         id="path160" />
      <path
         d="m -31.98,132.535 c 0.16,-0.066 0.636,-0.363 0.636,-0.555 0,-0.093 -0.082,-0.093 -0.164,-0.093 -0.461,0 -1.785,0.582 -1.785,1.933 0,0.973 1.098,1.973 2.746,1.973 2.199,0 4.754,-1.527 4.754,-3.363 0,-1.285 -1.352,-1.907 -2.445,-2.395 -0.946,-0.43 -1.567,-0.984 -1.567,-1.754 0,-0.285 0.121,-0.812 0.539,-1.176 0.407,-0.351 1.164,-0.39 1.352,-0.39 0.148,0 0.715,0.012 1.297,0.269 0.258,0.121 0.609,0.282 0.609,0.864 0,0.191 -0.015,0.257 -0.054,0.406 -0.016,0.039 -0.028,0.094 -0.028,0.137 0,0.093 0.082,0.093 0.133,0.093 0.176,0 0.5,-0.136 0.773,-0.367 0.172,-0.133 0.325,-0.308 0.325,-0.836 0,-0.664 -0.352,-0.851 -0.719,-1.011 -0.633,-0.301 -1.254,-0.301 -1.445,-0.301 -1.77,0 -3.93,1.351 -3.93,2.894 0,1.133 1.176,1.672 1.824,1.957 0.957,0.434 2.188,1.055 2.188,2.188 0,0.906 -0.664,2.043 -2.715,2.043 -1.379,0 -2.489,-0.895 -2.489,-1.813 0,-0.242 0.071,-0.484 0.165,-0.703 z"
         style="fill:#0000ff;fill-opacity:1;fill-rule:nonzero;stroke:none"
         id="path162" />
      <path
         d="m -23.363,133.938 h 0.883 c 0.171,0 0.277,0 0.277,-0.172 0,-0.125 -0.117,-0.125 -0.27,-0.125 h -0.82 l 0.324,-1.282 c 0.039,-0.132 0.039,-0.179 0.039,-0.187 0,-0.192 -0.144,-0.281 -0.297,-0.281 -0.308,0 -0.371,0.246 -0.468,0.648 l -0.282,1.102 h -0.863 c -0.172,0 -0.289,0 -0.289,0.168 0,0.129 0.117,0.129 0.27,0.129 h 0.812 l -0.543,2.16 c -0.051,0.226 -0.133,0.539 -0.133,0.668 0,0.539 0.442,0.843 0.918,0.843 0.965,0 1.512,-1.269 1.512,-1.375 0,-0.101 -0.078,-0.117 -0.133,-0.117 -0.101,0 -0.109,0.035 -0.172,0.172 -0.179,0.43 -0.629,1.07 -1.179,1.07 -0.188,0 -0.297,-0.125 -0.297,-0.421 0,-0.172 0.027,-0.274 0.054,-0.391 z"
         style="fill:#0000ff;fill-opacity:1;fill-rule:nonzero;stroke:none"
         id="path164" />
      <path
         d="m -150.203,7.957 c 0.16,-0.07 0.633,-0.367 0.633,-0.555 0,-0.093 -0.078,-0.093 -0.16,-0.093 -0.461,0 -1.786,0.578 -1.786,1.929 0,0.973 1.094,1.973 2.743,1.973 2.203,0 4.757,-1.527 4.757,-3.363 0,-1.286 -1.351,-1.907 -2.445,-2.391 -0.945,-0.434 -1.566,-0.988 -1.566,-1.758 0,-0.281 0.121,-0.808 0.539,-1.176 0.406,-0.351 1.16,-0.39 1.351,-0.39 0.149,0 0.715,0.015 1.297,0.269 0.254,0.121 0.606,0.286 0.606,0.868 0,0.187 -0.012,0.253 -0.051,0.402 -0.016,0.043 -0.027,0.098 -0.027,0.137 0,0.093 0.078,0.093 0.132,0.093 0.176,0 0.5,-0.132 0.77,-0.363 0.176,-0.137 0.324,-0.312 0.324,-0.84 0,-0.66 -0.352,-0.851 -0.715,-1.011 -0.637,-0.297 -1.258,-0.297 -1.445,-0.297 -1.77,0 -3.93,1.351 -3.93,2.89 0,1.133 1.172,1.676 1.821,1.957 0.96,0.434 2.191,1.055 2.191,2.192 0,0.902 -0.664,2.039 -2.715,2.039 -1.379,0 -2.488,-0.891 -2.488,-1.809 0,-0.246 0.07,-0.488 0.164,-0.703 z"
         style="fill:#f41212;fill-opacity:1;fill-rule:nonzero;stroke:none"
         id="path166" />
      <path
         d="m -141.586,9.355 h 0.883 c 0.172,0 0.277,0 0.277,-0.171 0,-0.125 -0.117,-0.125 -0.269,-0.125 h -0.821 l 0.325,-1.278 c 0.035,-0.136 0.035,-0.179 0.035,-0.191 0,-0.188 -0.141,-0.278 -0.297,-0.278 -0.305,0 -0.367,0.243 -0.465,0.649 l -0.281,1.098 h -0.863 c -0.172,0 -0.29,0 -0.29,0.171 0,0.125 0.118,0.125 0.27,0.125 h 0.812 l -0.542,2.165 c -0.055,0.222 -0.133,0.539 -0.133,0.664 0,0.539 0.441,0.847 0.918,0.847 0.965,0 1.511,-1.269 1.511,-1.379 0,-0.097 -0.082,-0.117 -0.132,-0.117 -0.102,0 -0.11,0.035 -0.172,0.172 -0.18,0.434 -0.633,1.07 -1.18,1.07 -0.191,0 -0.297,-0.125 -0.297,-0.422 0,-0.171 0.027,-0.269 0.055,-0.386 z"
         style="fill:#f41212;fill-opacity:1;fill-rule:nonzero;stroke:none"
         id="path168" />
      <g
         id="g170"
         transform="translate(-181.5,-39)">
        <path
           d="m 142.934,24.672 0.582,151.644"
           style="fill:none;stroke:#1b00ff;stroke-width:0.692308;stroke-linecap:butt;stroke-linejoin:miter;stroke-miterlimit:4;stroke-dasharray:none;stroke-opacity:1"
           id="path172" />
      </g>
      <g
         id="g174"
         transform="translate(-181.5,-39)">
        <path
           d="m 100.984,98.938 55.27,-0.274"
           style="fill:none;stroke:#000000;stroke-width:0.907087;stroke-linecap:butt;stroke-linejoin:miter;stroke-miterlimit:4;stroke-dasharray:none;stroke-opacity:1"
           id="path176" />
      </g>
      <g
         id="g178"
         transform="matrix(1,-0.00492666,0.00492666,1,-181.5,-39)">
        <path
           d="m 101.381,99.433 c 0.002,0.5 -0.407,0.904 -0.907,0.906 -0.5,0.001 -0.904,-0.407 -0.905,-0.907 -0.002,-0.5 0.407,-0.908 0.907,-0.91 0.5,0.003 0.908,0.407 0.905,0.911 z"
           style="fill:#000000;fill-opacity:1;fill-rule:evenodd;stroke:#000000;stroke-width:0.241887;stroke-linecap:butt;stroke-linejoin:miter;stroke-miterlimit:4;stroke-dasharray:none;stroke-opacity:1"
           id="path180" />
      </g>
      <g
         id="g182"
         transform="matrix(-1,0.00492666,-0.00492666,-1,-181.5,-39)">
        <path
           d="m -151.017,-97.236 -5.946,-2.186 5.944,-2.185 c -0.948,1.288 -0.945,3.054 0.002,4.371 z"
           style="fill:#000000;fill-opacity:1;fill-rule:evenodd;stroke:#000000;stroke-width:0.340153;stroke-linecap:butt;stroke-linejoin:round;stroke-miterlimit:4;stroke-dasharray:none;stroke-opacity:1"
           id="path184" />
      </g>
      <path
         d="m -83.059,64.52 c 0.121,-0.458 0.149,-0.594 1.11,-0.594 0.254,0 0.379,0 0.379,-0.254 0,-0.137 -0.098,-0.137 -0.352,-0.137 h -1.621 c -0.34,0 -0.352,0.012 -0.5,0.231 l -4.934,7.793 -1.011,-7.727 c -0.039,-0.297 -0.055,-0.297 -0.407,-0.297 h -1.675 c -0.254,0 -0.375,0 -0.375,0.258 0,0.133 0.121,0.133 0.324,0.133 0.824,0 0.824,0.109 0.824,0.258 0,0.027 0,0.109 -0.055,0.312 l -1.73,6.887 c -0.16,0.648 -0.473,0.945 -1.379,0.988 -0.039,0 -0.203,0.012 -0.203,0.242 0,0.149 0.125,0.149 0.176,0.149 0.273,0 0.961,-0.028 1.23,-0.028 h 0.649 c 0.187,0 0.418,0.028 0.609,0.028 0.094,0 0.242,0 0.242,-0.258 0,-0.121 -0.137,-0.133 -0.187,-0.133 -0.45,-0.016 -0.879,-0.094 -0.879,-0.582 0,-0.133 0,-0.148 0.054,-0.336 l 1.864,-7.445 h 0.011 l 1.122,8.39 c 0.043,0.325 0.054,0.364 0.175,0.364 0.149,0 0.219,-0.11 0.286,-0.231 l 5.429,-8.59 h 0.016 l -1.961,7.821 c -0.121,0.472 -0.149,0.609 -1.094,0.609 -0.258,0 -0.39,0 -0.39,0.242 0,0.149 0.121,0.149 0.203,0.149 0.226,0 0.5,-0.028 0.726,-0.028 h 1.594 c 0.23,0 0.516,0.028 0.746,0.028 0.105,0 0.254,0 0.254,-0.258 0,-0.133 -0.121,-0.133 -0.324,-0.133 -0.825,0 -0.825,-0.109 -0.825,-0.242 0,-0.016 0,-0.109 0.028,-0.219 z"
         style="fill:#000000;fill-opacity:1;fill-rule:nonzero;stroke:none"
         id="path186" />
      <path
         d="m -80.535,71.203 h 0.879 c 0.172,0 0.281,0 0.281,-0.172 0,-0.125 -0.117,-0.125 -0.27,-0.125 h -0.82 l 0.324,-1.277 c 0.036,-0.137 0.036,-0.18 0.036,-0.191 0,-0.188 -0.145,-0.278 -0.297,-0.278 -0.305,0 -0.368,0.242 -0.469,0.649 l -0.277,1.097 h -0.868 c -0.168,0 -0.285,0 -0.285,0.172 0,0.125 0.117,0.125 0.27,0.125 h 0.808 l -0.539,2.164 c -0.054,0.223 -0.136,0.539 -0.136,0.664 0,0.543 0.441,0.848 0.921,0.848 0.961,0 1.512,-1.27 1.512,-1.379 0,-0.098 -0.082,-0.117 -0.137,-0.117 -0.097,0 -0.105,0.035 -0.171,0.172 -0.18,0.433 -0.629,1.07 -1.18,1.07 -0.188,0 -0.297,-0.125 -0.297,-0.422 0,-0.172 0.027,-0.269 0.055,-0.387 z"
         style="fill:#000000;fill-opacity:1;fill-rule:nonzero;stroke:none"
         id="path188" />
      <path
         d="m -25.223,64.098 c 0,-0.121 -0.093,-0.121 -0.121,-0.121 -0.027,0 -0.082,0 -0.191,0.136 l -0.93,1.133 c -0.473,-0.808 -1.219,-1.269 -2.23,-1.269 -2.918,0 -5.946,2.957 -5.946,6.132 0,2.258 1.582,3.661 3.555,3.661 1.078,0 2.027,-0.458 2.809,-1.122 1.175,-0.984 1.527,-2.296 1.527,-2.402 0,-0.121 -0.109,-0.121 -0.148,-0.121 -0.122,0 -0.137,0.078 -0.164,0.133 -0.622,2.109 -2.446,3.121 -3.793,3.121 -1.434,0 -2.676,-0.918 -2.676,-2.836 0,-0.434 0.133,-2.785 1.66,-4.555 0.742,-0.863 2.016,-1.621 3.297,-1.621 1.488,0 2.148,1.231 2.148,2.61 0,0.351 -0.039,0.648 -0.039,0.703 0,0.121 0.133,0.121 0.176,0.121 0.148,0 0.16,-0.016 0.215,-0.258 z"
         style="fill:#000000;fill-opacity:1;fill-rule:nonzero;stroke:none"
         id="path190" />
      <path
         d="m -23.859,71.93 h 0.882 c 0.168,0 0.278,0 0.278,-0.172 0,-0.125 -0.117,-0.125 -0.27,-0.125 h -0.82 l 0.324,-1.281 c 0.035,-0.133 0.035,-0.18 0.035,-0.188 0,-0.187 -0.144,-0.281 -0.297,-0.281 -0.304,0 -0.367,0.246 -0.468,0.648 l -0.278,1.102 h -0.863 c -0.172,0 -0.289,0 -0.289,0.172 0,0.125 0.117,0.125 0.27,0.125 h 0.808 l -0.539,2.16 c -0.055,0.226 -0.137,0.543 -0.137,0.668 0,0.539 0.442,0.847 0.922,0.847 0.961,0 1.512,-1.273 1.512,-1.378 0,-0.102 -0.082,-0.118 -0.137,-0.118 -0.097,0 -0.105,0.036 -0.168,0.172 -0.183,0.43 -0.633,1.071 -1.179,1.071 -0.192,0 -0.301,-0.125 -0.301,-0.422 0,-0.172 0.027,-0.274 0.054,-0.391 z"
         style="fill:#000000;fill-opacity:1;fill-rule:nonzero;stroke:none"
         id="path192" />
      <g
         id="g194"
         transform="translate(-181.5,-39)">
        <path
           d="M 100.984,98.938 142.805,41.602"
           style="fill:none;stroke:#000000;stroke-width:0.646299;stroke-linecap:butt;stroke-linejoin:miter;stroke-miterlimit:4;stroke-dasharray:1.2926, 1.2926;stroke-dashoffset:0;stroke-opacity:1"
           id="path196" />
      </g>
      <path
         d="m -30.754,-6.5550001 h 2.27 c 1.867,0 3.73,-1.379 3.73,-2.918 0,-1.0539999 -0.891,-2.0109999 -2.594,-2.0109999 h -4.175 c -0.254,0 -0.375,0 -0.375,0.254 0,0.136 0.121,0.136 0.324,0.136 0.82,0 0.82,0.11 0.82,0.258 0,0.027 0,0.106 -0.051,0.309 l -1.824,7.2689999 c -0.121,0.473 -0.148,0.61 -1.094,0.61 -0.257,0 -0.394,0 -0.394,0.242 0,0.148 0.121,0.148 0.203,0.148 0.258,0 0.527,-0.027 0.785,-0.027 h 1.578 c 0.258,0 0.543,0.027 0.797,0.027 0.109,0 0.258,0 0.258,-0.258 0,-0.132 -0.121,-0.132 -0.324,-0.132 -0.809,0 -0.825,-0.098 -0.825,-0.231 0,-0.07 0.016,-0.164 0.028,-0.23 z M -29.781,-10.566 c 0.125,-0.5 0.176,-0.528 0.703,-0.528 h 1.34 c 1.011,0 1.847,0.324 1.847,1.3359999 0,0.352 -0.171,1.5 -0.797,2.121 -0.226,0.246 -0.874,0.758 -2.105,0.758 h -1.906 z"
         style="fill:#000000;fill-opacity:1;fill-rule:nonzero;stroke:none"
         id="path198" />
      <g
         id="g200"
         transform="translate(82.5,-261)">
        <path
           d="M 16.242,320.758 184.285,320.59"
           style="fill:none;stroke:#000000;stroke-width:0.646299;stroke-linecap:butt;stroke-linejoin:miter;stroke-miterlimit:4;stroke-dasharray:1.2926, 1.2926;stroke-dashoffset:0;stroke-opacity:1"
           id="path202" />
      </g>
      <g
         id="g204"
         transform="translate(-181.5,-39)">
        <path
           d="M 16.242,98.758 184.285,98.59"
           style="fill:none;stroke:#000000;stroke-width:0.646299;stroke-linecap:butt;stroke-linejoin:miter;stroke-miterlimit:4;stroke-dasharray:1.2926, 1.2926;stroke-dashoffset:0;stroke-opacity:1"
           id="path206" />
      </g>
      <path
         d="m -63.559,64.898 c 0,-0.332 -0.285,-0.652 -0.652,-0.652 -0.422,0 -0.668,0.344 -0.668,0.652 0,0.332 0.285,0.653 0.652,0.653 0.422,0 0.668,-0.344 0.668,-0.653 z"
         style="fill:#000000;fill-opacity:1;fill-rule:nonzero;stroke:none"
         id="path208" />
      <path
         d="m -68.539,71.766 c -0.039,0.183 -0.113,0.464 -0.113,0.527 0,0.223 0.172,0.332 0.359,0.332 0.148,0 0.367,-0.098 0.453,-0.344 0.016,-0.023 0.16,-0.605 0.235,-0.91 l 0.273,-1.109 c 0.074,-0.274 0.148,-0.543 0.207,-0.828 0.051,-0.211 0.148,-0.567 0.16,-0.618 0.188,-0.378 0.84,-1.504 2.012,-1.504 0.555,0 0.664,0.458 0.664,0.864 0,0.308 -0.086,0.652 -0.184,1.023 l -0.343,1.43 -0.25,0.937 c -0.047,0.246 -0.161,0.664 -0.161,0.727 0,0.223 0.176,0.332 0.36,0.332 0.383,0 0.457,-0.305 0.555,-0.699 0.171,-0.692 0.628,-2.492 0.738,-2.973 0.039,-0.16 0.691,-1.641 2.035,-1.641 0.531,0 0.664,0.422 0.664,0.864 0,0.703 -0.516,2.109 -0.762,2.762 -0.113,0.296 -0.16,0.433 -0.16,0.679 0,0.578 0.43,1.008 1.012,1.008 1.156,0 1.613,-1.797 1.613,-1.898 0,-0.122 -0.109,-0.122 -0.148,-0.122 -0.125,0 -0.125,0.036 -0.184,0.223 -0.187,0.652 -0.582,1.527 -1.258,1.527 -0.211,0 -0.297,-0.125 -0.297,-0.406 0,-0.308 0.11,-0.605 0.223,-0.875 0.234,-0.64 0.75,-2.012 0.75,-2.711 0,-0.804 -0.492,-1.32 -1.418,-1.32 -0.922,0 -1.551,0.543 -2.008,1.195 -0.011,-0.16 -0.05,-0.578 -0.394,-0.875 -0.309,-0.258 -0.703,-0.32 -1.012,-0.32 -1.109,0 -1.711,0.789 -1.922,1.07 -0.062,-0.699 -0.578,-1.07 -1.133,-1.07 -0.566,0 -0.8,0.48 -0.914,0.703 -0.222,0.43 -0.383,1.156 -0.383,1.195 0,0.121 0.125,0.121 0.149,0.121 0.125,0 0.137,-0.011 0.211,-0.281 0.207,-0.875 0.457,-1.469 0.898,-1.469 0.2,0 0.383,0.102 0.383,0.567 0,0.262 -0.035,0.394 -0.195,1.039 z"
         style="fill:#000000;fill-opacity:1;fill-rule:nonzero;stroke:none"
         id="path210" />
      <path
         d="m -54.723,75.449 c 0,-0.035 0,-0.062 -0.207,-0.269 -1.543,-1.555 -1.937,-3.883 -1.937,-5.77 0,-2.144 0.469,-4.289 1.984,-5.832 0.16,-0.148 0.16,-0.172 0.16,-0.211 0,-0.086 -0.047,-0.121 -0.121,-0.121 -0.125,0 -1.234,0.84 -1.961,2.402 -0.629,1.356 -0.777,2.727 -0.777,3.762 0,0.961 0.137,2.453 0.812,3.844 0.743,1.519 1.801,2.32 1.926,2.32 0.074,0 0.121,-0.039 0.121,-0.125 z"
         style="fill:#000000;fill-opacity:1;fill-rule:nonzero;stroke:none"
         id="path212" />
      <path
         d="m -51.469,67.559 h 1.16 c 0.247,0 0.368,0 0.368,-0.247 0,-0.132 -0.121,-0.132 -0.344,-0.132 h -1.086 c 0.445,-1.754 0.508,-2 0.508,-2.075 0,-0.207 -0.149,-0.332 -0.36,-0.332 -0.035,0 -0.382,0.012 -0.492,0.446 l -0.48,1.961 h -1.16 c -0.247,0 -0.372,0 -0.372,0.234 0,0.145 0.102,0.145 0.348,0.145 h 1.086 c -0.891,3.503 -0.937,3.711 -0.937,3.933 0,0.668 0.468,1.133 1.132,1.133 1.258,0 1.961,-1.797 1.961,-1.898 0,-0.122 -0.097,-0.122 -0.148,-0.122 -0.11,0 -0.125,0.036 -0.184,0.172 -0.531,1.282 -1.183,1.578 -1.605,1.578 -0.258,0 -0.379,-0.16 -0.379,-0.566 0,-0.297 0.023,-0.383 0.07,-0.594 z"
         style="fill:#000000;fill-opacity:1;fill-rule:nonzero;stroke:none"
         id="path214" />
      <path
         d="m -45.996,69.41 c 0,-0.961 -0.133,-2.453 -0.813,-3.848 -0.738,-1.515 -1.8,-2.316 -1.921,-2.316 -0.075,0 -0.125,0.051 -0.125,0.121 0,0.039 0,0.063 0.234,0.285 1.211,1.219 1.91,3.18 1.91,5.758 0,2.106 -0.453,4.278 -1.984,5.828 -0.16,0.149 -0.16,0.176 -0.16,0.211 0,0.074 0.05,0.125 0.125,0.125 0.121,0 1.23,-0.84 1.96,-2.406 0.629,-1.356 0.774,-2.723 0.774,-3.758 z"
         style="fill:#000000;fill-opacity:1;fill-rule:nonzero;stroke:none"
         id="path216" />
      <path
         d="m -80.051,27.461 c -0.035,0.184 -0.109,0.469 -0.109,0.531 0,0.219 0.172,0.332 0.355,0.332 0.149,0 0.371,-0.097 0.457,-0.347 0.024,-0.047 0.446,-1.723 0.493,-1.946 0.101,-0.406 0.32,-1.269 0.394,-1.601 0.051,-0.16 0.395,-0.742 0.691,-1.012 0.098,-0.086 0.458,-0.406 0.985,-0.406 0.32,0 0.508,0.144 0.519,0.144 -0.371,0.063 -0.64,0.36 -0.64,0.68 0,0.199 0.136,0.434 0.468,0.434 0.333,0 0.676,-0.286 0.676,-0.731 0,-0.43 -0.394,-0.801 -1.023,-0.801 -0.801,0 -1.344,0.606 -1.578,0.95 -0.098,-0.555 -0.539,-0.95 -1.121,-0.95 -0.567,0 -0.801,0.481 -0.911,0.703 -0.222,0.418 -0.382,1.161 -0.382,1.196 0,0.125 0.125,0.125 0.148,0.125 0.121,0 0.137,-0.012 0.207,-0.285 0.211,-0.875 0.457,-1.465 0.902,-1.465 0.208,0 0.383,0.097 0.383,0.566 0,0.258 -0.039,0.395 -0.199,1.035 z"
         style="fill:#000000;fill-opacity:1;fill-rule:nonzero;stroke:none"
         id="path218" />
      <path
         d="m -71.152,31.145 c 0,-0.036 0,-0.059 -0.207,-0.27 -1.543,-1.555 -1.938,-3.883 -1.938,-5.77 0,-2.144 0.469,-4.289 1.985,-5.832 0.16,-0.144 0.16,-0.171 0.16,-0.207 0,-0.086 -0.047,-0.125 -0.121,-0.125 -0.125,0 -1.235,0.84 -1.961,2.407 -0.629,1.355 -0.778,2.722 -0.778,3.757 0,0.961 0.137,2.454 0.817,3.848 0.738,1.516 1.797,2.317 1.922,2.317 0.074,0 0.121,-0.036 0.121,-0.125 z"
         style="fill:#000000;fill-opacity:1;fill-rule:nonzero;stroke:none"
         id="path220" />
      <path
         d="m -67.898,23.258 h 1.16 c 0.246,0 0.371,0 0.371,-0.246 0,-0.137 -0.125,-0.137 -0.348,-0.137 h -1.086 c 0.446,-1.75 0.508,-1.996 0.508,-2.07 0,-0.211 -0.148,-0.332 -0.359,-0.332 -0.036,0 -0.383,0.011 -0.493,0.441 l -0.48,1.961 h -1.16 c -0.246,0 -0.367,0 -0.367,0.234 0,0.149 0.097,0.149 0.343,0.149 h 1.086 c -0.886,3.5 -0.937,3.711 -0.937,3.93 0,0.667 0.469,1.136 1.133,1.136 1.257,0 1.961,-1.801 1.961,-1.898 0,-0.125 -0.098,-0.125 -0.149,-0.125 -0.109,0 -0.121,0.039 -0.183,0.172 -0.532,1.285 -1.184,1.578 -1.602,1.578 -0.262,0 -0.383,-0.16 -0.383,-0.567 0,-0.296 0.024,-0.382 0.074,-0.589 z"
         style="fill:#000000;fill-opacity:1;fill-rule:nonzero;stroke:none"
         id="path222" />
      <path
         d="m -62.422,25.105 c 0,-0.96 -0.137,-2.453 -0.816,-3.847 -0.739,-1.516 -1.797,-2.317 -1.922,-2.317 -0.074,0 -0.121,0.051 -0.121,0.125 0,0.036 0,0.063 0.234,0.282 1.207,1.222 1.91,3.183 1.91,5.757 0,2.11 -0.457,4.278 -1.984,5.833 -0.16,0.148 -0.16,0.171 -0.16,0.207 0,0.074 0.047,0.125 0.121,0.125 0.125,0 1.234,-0.84 1.961,-2.403 0.629,-1.359 0.777,-2.726 0.777,-3.762 z"
         style="fill:#000000;fill-opacity:1;fill-rule:nonzero;stroke:none"
         id="path224" />
    </g>
  </g>
</svg>
